<svg xmlns="http://www.w3.org/2000/svg" data-name="Layer 1" viewBox="0 0 64 64">
  <path style="fill:#ced8ed" d="M5 9h54v10H5z"/>
  <path style="fill:#8b8e98" d="M5 19h54v36H5z"/>
  <path d="M55 18h-4a1 1 0 0 0 0 2h4a1 1 0 0 0 0-2Z" style="fill:#8d6c9f"/>
  <path d="M57 8H7a3 3 0 0 0-3 3v42a3 3 0 0 0 3 3h50a3 3 0 0 0 3-3V11a3 3 0 0 0-3-3Zm1 45a1 1 0 0 1-1 1H7a1 1 0 0 1-1-1V20h41a1 1 0 0 0 0-2H6v-7a1 1 0 0 1 1-1h50a1 1 0 0 1 1 1Z" style="fill:#8d6c9f"/>
  <path d="M20 12a1 1 0 0 0-1 1v2a1 1 0 0 0 2 0v-2a1 1 0 0 0-1-1ZM15 12a1 1 0 0 0-1 1v2a1 1 0 0 0 2 0v-2a1 1 0 0 0-1-1ZM10 12a1 1 0 0 0-1 1v2a1 1 0 0 0 2 0v-2a1 1 0 0 0-1-1ZM35 12a1 1 0 0 0-1 1v2a1 1 0 0 0 2 0v-2a1 1 0 0 0-1-1ZM40 12a1 1 0 0 0-1 1v2a1 1 0 0 0 2 0v-2a1 1 0 0 0-1-1ZM45 12a1 1 0 0 0-1 1v2a1 1 0 0 0 2 0v-2a1 1 0 0 0-1-1ZM51 15v-2a1 1 0 0 0-2 0v2a1 1 0 0 0 2 0ZM55 12a1 1 0 0 0-1 1v2a1 1 0 0 0 2 0v-2a1 1 0 0 0-1-1ZM25 12a1 1 0 0 0-1 1v2a1 1 0 0 0 2 0v-2a1 1 0 0 0-1-1ZM30 12a1 1 0 0 0-1 1v2a1 1 0 0 0 2 0v-2a1 1 0 0 0-1-1Z" style="fill:#8d6c9f"/>
  <path d="M41.71 30.29a1 1 0 0 0-1.41 1.41l5.29 5.3-5.29 5.29a1 1 0 1 0 1.41 1.41l6-6a1 1 0 0 0 0-1.41ZM23.71 30.29a1 1 0 0 0-1.41 0l-6 6a1 1 0 0 0 0 1.41l6 6a1 1 0 0 0 1.41-1.41L18.41 37l5.29-5.29a1 1 0 0 0 .01-1.42ZM35.24 24a1 1 0 0 0-1.21.73l-6 24a1 1 0 1 0 1.94.49l6-24a1 1 0 0 0-.73-1.22Z" style="fill:#faefde"/>
</svg>
