<svg height="118" viewBox="0 0 96 118" width="96" xmlns="http://www.w3.org/2000/svg"><g fill="none" fill-rule="evenodd"><path d="m13 20h71v70h-71z" fill="#fff"/><path d="m84.88 11.07-24.24-6.433a49.617 49.617 0 0 0 -25.28 0l-24.24 6.433c-5.31 1.38-9.12 6.203-9.12 11.832v42.16c0 12.292 6.233 23.78 16.507 30.558l26.55 17.346a6.125 6.125 0 0 0 6.81 0l25.857-17.346c10.158-6.778 16.276-18.15 16.276-30.328v-42.39c0-5.629-3.694-10.453-9.12-11.832zm-58.292 65.71c-3.347 0-6.118-2.757-6.118-6.089 0-3.331 2.77-6.088 6.118-6.088s6.118 2.757 6.118 6.088c0 3.332-2.77 6.089-6.118 6.089zm15.352-18.38h-15.353c-3.347 0-6.118-2.758-6.118-6.089s2.77-6.088 6.118-6.088h15.353c3.347 0 6.118 2.757 6.118 6.088s-2.77 6.088-6.118 6.088zm27.588-18.266h-42.94c-3.348 0-6.119-2.757-6.119-6.088 0-3.332 2.77-6.089 6.118-6.089h42.941c3.348 0 6.118 2.757 6.118 6.089 0 3.331-2.77 6.088-6.118 6.088z" fill="#4bc545" fill-rule="nonzero"/><g stroke="#688696" stroke-width="1.5"><ellipse cx="47.271" cy="58.137" opacity=".6" rx="175.548" ry="176.046" stroke-dasharray="3.0032 3.0032"/><circle cx="46.319" cy="58.59" r="107.229" stroke-dasharray="3.0074 3.0074"/><circle cx="46.272" cy="58.637" opacity=".3" r="275.547" stroke-dasharray="3.0038 3.0038"/></g></g></svg>